<svg xmlns="http://www.w3.org/2000/svg" viewBox="0 0 32 32" width="32" height="32">
  <g fill="none" stroke="#1e40af" stroke-width="2" stroke-linecap="round" stroke-linejoin="round">
    <!-- Main axes -->
    <line x1="16" y1="2" x2="16" y2="30"/>
    <line x1="3.9" y1="9" x2="28.1" y2="23"/>
    <line x1="3.9" y1="23" x2="28.1" y2="9"/>
    <!-- Branches on vertical axis -->
    <line x1="16" y1="5" x2="12" y2="8"/>
    <line x1="16" y1="5" x2="20" y2="8"/>
    <line x1="16" y1="27" x2="12" y2="24"/>
    <line x1="16" y1="27" x2="20" y2="24"/>
    <!-- Branches on top-right / bottom-left axis -->
    <line x1="25.5" y1="10.5" x2="23" y2="7"/>
    <line x1="25.5" y1="10.5" x2="27" y2="14"/>
    <line x1="6.5" y1="21.5" x2="9" y2="25"/>
    <line x1="6.5" y1="21.5" x2="5" y2="18"/>
    <!-- Branches on top-left / bottom-right axis -->
    <line x1="6.5" y1="10.5" x2="5" y2="14"/>
    <line x1="6.5" y1="10.5" x2="9" y2="7"/>
    <line x1="25.5" y1="21.5" x2="27" y2="18"/>
    <line x1="25.5" y1="21.5" x2="23" y2="25"/>
    <!-- Center dot -->
    <circle cx="16" cy="16" r="2" fill="#1e40af"/>
  </g>
</svg>
